<svg xmlns="http://www.w3.org/2000/svg" viewBox="0 0 24 24" fill="#000000">
  <path d="M17.543 13.298c-.011-1.79.802-3.14 2.444-4.136-.918-1.314-2.304-2.037-4.135-2.18-1.733-.137-3.63 1.017-4.32 1.017-.73 0-2.41-.968-3.73-.968-2.72.042-5.61 2.17-5.61 6.5 0 1.28.235 2.6.705 3.96.626 1.79 2.885 6.18 5.24 6.108 1.232-.03 2.103-.876 3.706-.876 1.555 0 2.36.876 3.73.876 2.377-.034 4.42-4.025 5.016-5.82-3.19-1.503-3.03-4.4-3.03-4.5zM14.77 5.29c1.337-1.588 1.215-3.033 1.176-3.554-1.18.068-2.545.803-3.323 1.71-.857.973-1.36 2.176-1.252 3.492 1.276.098 2.44-.558 3.4-1.648z"/>
</svg>
